<svg width="144" height="44" viewBox="0 0 144 44" fill="none" xmlns="http://www.w3.org/2000/svg">
    <path d="M13.5168 29.0642V32.313H17.8388C16.9066 39.5699 12.7541 40.7513 11.0592 40.7513C9.11009 40.7513 4.06776 39.2324 4.06776 29.0642C4.06776 17.7991 8.77111 17.335 11.0592 17.335C14.6609 17.335 18.7287 19.9509 18.7287 19.9509V16.3224C18.7287 16.3224 14.7456 14.0863 11.0592 14.0863C8.13552 14.0863 0 14.3816 0 29.0642C0 42.5655 7.96603 44 11.0592 44C14.11 44 22.1185 42.5655 22.1185 29.0642H13.5168Z" fill="#101F1C"/>
    <path d="M34.1085 17.546V14.2551H25.973V43.789H34.1085V40.5403H30.0408V34.085H34.1085V30.8363H30.0408V17.546H34.1085Z" fill="#101F1C"/>
    <path d="M46.4893 14.2551V22.2714L41.8707 14.2551H38.3537V43.789H42.4215V21.8073L46.4893 28.8955V43.789H50.557V14.2551H46.4893Z" fill="#101F1C"/>
    <path d="M54.0475 14.2551V17.546H58.1152V43.789H62.183V17.546H66.2507V14.2551H54.0475Z" fill="#101F1C"/>
    <path d="M73.8036 40.5403V14.2551H69.7359V43.789H77.8714V40.5403H73.8036Z" fill="#101F1C"/>
    <path d="M89.4659 17.546V14.2551H81.3304V43.789H89.4659V40.5403H85.3982V34.085H89.4659V30.8363H85.3982V17.546H89.4659Z" fill="#101F1C"/>
    <path d="M106.465 14.2551L101.804 22.3558L97.1857 14.2551H93.7111V43.789H97.7789V21.8917L101.804 28.9799L105.872 21.8917V43.789H109.94V14.2551H106.465Z" fill="#101F1C"/>
    <path d="M124.266 14.2551H117.444L114.012 43.789H118.08L118.546 38.8948H123.164L123.63 43.789H127.741L124.266 14.2551ZM118.885 35.6039L120.622 17.546H121.088L122.825 35.6039H118.885Z" fill="#101F1C"/>
    <path d="M139.932 14.2551V22.2714L135.314 14.2551H131.797V43.789H135.864V21.8073L139.932 28.8955V43.789H144V14.2551H139.932Z" fill="#101F1C"/>
    <path d="M33.8995 0.0914151H29.0521V1.4992H30.5761V8.64783H32.3572V1.4992H33.8995V0.0914151Z" fill="#101F1C"/>
    <path d="M38.8323 0.0914151V3.65659H37.5286V0.0914151H35.7659V8.64783H37.5286V5.06437H38.8323V8.64783H40.6134V0.0914151H38.8323Z" fill="#101F1C"/>
    <path d="M46.1245 1.4992V0.0914151H43.0582V8.64783H46.1245V7.22176H44.8209V5.06437H46.1245V3.65659H44.8209V1.4992H46.1245Z" fill="#101F1C"/>
    <path d="M59.4265 6.39903V6.34418C59.4265 5.22892 58.894 4.66215 58.1596 4.36962C58.894 4.05881 59.4265 3.49204 59.4265 2.39507C59.4265 0.255961 57.113 0.0914151 55.4604 0.0914151H53.6977V8.64783H55.4604V5.06437C55.846 5.06437 57.6638 5.08266 57.6638 6.14307V6.39903C57.6638 8.77581 59.1511 9.15975 60.2711 8.30045V7.45944C59.8121 7.67883 59.4265 7.56914 59.4265 6.39903ZM55.4604 1.4992C55.846 1.4992 57.6454 1.4992 57.6454 2.57789C57.6454 3.65659 55.846 3.65659 55.4604 3.65659V1.4992Z" fill="#101F1C"/>
    <path d="M65.2385 0.0914151V6.3259C65.2385 7.03893 64.9263 7.31318 64.5958 7.31318C64.2469 7.31318 63.9348 7.03893 63.9348 6.3259V0.0914151H62.1721V6.3259C62.1721 8.31874 63.7328 8.72096 64.5958 8.72096C65.4588 8.72096 67.0195 8.31874 67.0195 6.3259V0.0914151H65.2385Z" fill="#101F1C"/>
    <path d="M71.1745 7.22176V0.0914151H69.4118V8.64783H72.4782V7.22176H71.1745Z" fill="#101F1C"/>
    <path d="M77.4573 1.4992V0.0914151H74.3909V8.64783H77.4573V7.22176H76.1536V5.06437H77.4573V3.65659H76.1536V1.4992H77.4573Z" fill="#101F1C"/>
    <path d="M82.0242 3.32749C81.3449 2.65103 81.2163 2.32193 81.2163 1.99284C81.2163 1.64546 81.5101 1.35294 81.8774 1.35294C82.6118 1.35294 83.1076 1.55405 83.1076 1.55405V0.255961C82.7587 0.127981 82.3731 0 81.7856 0C80.5186 0 79.5455 0.93243 79.5455 2.1391C79.5455 3.01669 79.8576 3.51032 80.8491 4.62558C81.4918 5.33862 81.6754 5.81397 81.6754 6.41731C81.6754 6.92923 81.2531 7.31318 80.7389 7.31318C80.0779 7.31318 79.3802 7.05721 79.3802 7.05721V8.44672C79.7842 8.62955 80.2799 8.72096 80.8858 8.72096C82.2629 8.72096 83.4381 7.7154 83.4381 6.23448C83.4381 5.02781 82.979 4.29649 82.0242 3.32749Z" fill="#101F1C"/>
    <path d="M94.1928 0C93.2931 0 90.6307 0.274244 90.6307 4.36962C90.6307 8.44672 93.2931 8.72096 94.1928 8.72096C95.0926 8.72096 97.7733 8.44672 97.7733 4.36962C97.7733 0.274244 95.0926 0 94.1928 0ZM94.1928 7.31318C93.6053 7.31318 92.3934 6.91095 92.3934 4.36962C92.3934 1.81001 93.6053 1.40779 94.1928 1.40779C94.7804 1.40779 95.9923 1.81001 95.9923 4.36962C95.9923 6.91095 94.7804 7.31318 94.1928 7.31318Z" fill="#101F1C"/>
    <path d="M103.004 1.4992V0.0914151H99.9377V8.64783H101.7V5.06437H103.004V3.65659H101.7V1.4992H103.004Z" fill="#101F1C"/>
    <path d="M113.922 8.64783H115.704L114.235 0.0914151H111.462L110.012 8.64783H111.774L112.068 6.45388H113.629L113.922 8.64783ZM112.27 5.04609L112.784 1.4992H112.913L113.427 5.04609H112.27Z" fill="#101F1C"/>
</svg>
